<svg xmlns="http://www.w3.org/2000/svg" xmlns:xlink="http://www.w3.org/1999/xlink" width="40" zoomAndPan="magnify" viewBox="0 0 30 30.000001" height="40" preserveAspectRatio="xMidYMid meet" version="1.0"><path fill="#ff7c66" d="M 23.046875 13.109375 C 21.859375 10.480469 21.503906 5.511719 13.324219 7.5625 C 3.433594 10.039062 5.820312 17.105469 9.605469 20.527344 C 12.273438 22.9375 17.660156 21.261719 20.1875 20.707031 C 24.855469 19.683594 25.046875 17.546875 23.046875 13.109375 Z M 23.046875 13.109375 " fill-opacity="1" fill-rule="nonzero"/><path fill="#000000" d="M 22.058594 19.753906 L 8.726562 19.753906 C 7.761719 19.753906 6.972656 18.9375 6.972656 17.9375 L 6.972656 8.507812 C 6.972656 7.507812 7.761719 6.691406 8.726562 6.691406 L 12.296875 6.691406 C 12.578125 6.691406 12.84375 6.804688 13.039062 7.011719 L 14.03125 8.039062 C 14.097656 8.105469 14.1875 8.144531 14.28125 8.144531 L 22.058594 8.144531 C 23.027344 8.144531 23.8125 8.957031 23.8125 9.957031 L 23.8125 17.9375 C 23.8125 18.9375 23.027344 19.753906 22.058594 19.753906 Z M 8.726562 7.417969 C 8.148438 7.417969 7.675781 7.90625 7.675781 8.507812 L 7.675781 17.9375 C 7.675781 18.539062 8.148438 19.027344 8.726562 19.027344 L 22.058594 19.027344 C 22.640625 19.027344 23.113281 18.539062 23.113281 17.9375 L 23.113281 9.957031 C 23.113281 9.359375 22.640625 8.871094 22.058594 8.871094 L 14.28125 8.871094 C 14 8.871094 13.734375 8.757812 13.535156 8.550781 L 12.542969 7.523438 C 12.476562 7.457031 12.390625 7.417969 12.296875 7.417969 Z M 8.726562 7.417969 " fill-opacity="1" fill-rule="nonzero"/><path fill="#000000" d="M 12.9375 16.125 L 11.535156 16.125 C 10.953125 16.125 10.480469 15.636719 10.480469 15.035156 L 10.480469 12.859375 C 10.480469 12.257812 10.953125 11.769531 11.535156 11.769531 L 12.9375 11.769531 C 13.132812 11.769531 13.289062 11.933594 13.289062 12.132812 C 13.289062 12.335938 13.132812 12.496094 12.9375 12.496094 L 11.535156 12.496094 C 11.339844 12.496094 11.183594 12.660156 11.183594 12.859375 L 11.183594 15.035156 C 11.183594 15.238281 11.339844 15.398438 11.535156 15.398438 L 12.9375 15.398438 C 13.132812 15.398438 13.289062 15.5625 13.289062 15.761719 C 13.289062 15.960938 13.132812 16.125 12.9375 16.125 Z M 12.9375 16.125 " fill-opacity="1" fill-rule="nonzero"/><path fill="#000000" d="M 15.570312 16.125 L 14.339844 16.125 C 14.148438 16.125 13.988281 15.960938 13.988281 15.761719 C 13.988281 15.5625 14.148438 15.398438 14.339844 15.398438 L 15.570312 15.398438 C 15.859375 15.398438 16.09375 15.15625 16.09375 14.855469 C 16.09375 14.554688 15.859375 14.3125 15.570312 14.3125 L 15.21875 14.3125 C 14.539062 14.3125 13.988281 13.742188 13.988281 13.042969 C 13.988281 12.339844 14.539062 11.769531 15.21875 11.769531 L 16.445312 11.769531 C 16.640625 11.769531 16.796875 11.933594 16.796875 12.132812 C 16.796875 12.335938 16.640625 12.496094 16.445312 12.496094 L 15.21875 12.496094 C 14.925781 12.496094 14.691406 12.742188 14.691406 13.042969 C 14.691406 13.339844 14.925781 13.585938 15.21875 13.585938 L 15.570312 13.585938 C 16.246094 13.585938 16.796875 14.15625 16.796875 14.855469 C 16.796875 15.554688 16.246094 16.125 15.570312 16.125 Z M 15.570312 16.125 " fill-opacity="1" fill-rule="nonzero"/><path fill="#000000" d="M 19.078125 16.125 L 17.847656 16.125 C 17.65625 16.125 17.5 15.960938 17.5 15.761719 C 17.5 15.5625 17.65625 15.398438 17.847656 15.398438 L 19.078125 15.398438 C 19.367188 15.398438 19.605469 15.15625 19.605469 14.855469 C 19.605469 14.554688 19.367188 14.3125 19.078125 14.3125 L 18.726562 14.3125 C 18.050781 14.3125 17.5 13.742188 17.5 13.042969 C 17.5 12.339844 18.050781 11.769531 18.726562 11.769531 L 19.953125 11.769531 C 20.148438 11.769531 20.304688 11.933594 20.304688 12.132812 C 20.304688 12.335938 20.148438 12.496094 19.953125 12.496094 L 18.726562 12.496094 C 18.4375 12.496094 18.199219 12.742188 18.199219 13.042969 C 18.199219 13.339844 18.4375 13.585938 18.726562 13.585938 L 19.078125 13.585938 C 19.753906 13.585938 20.304688 14.15625 20.304688 14.855469 C 20.304688 15.554688 19.753906 16.125 19.078125 16.125 Z M 19.078125 16.125 " fill-opacity="1" fill-rule="nonzero"/></svg>