<svg xmlns="http://www.w3.org/2000/svg" xmlns:xlink="http://www.w3.org/1999/xlink" width="40" zoomAndPan="magnify" viewBox="0 0 30 30.000001" height="40" preserveAspectRatio="xMidYMid meet" version="1.0"><defs><clipPath id="05e0c8b0de"><path d="M 3.386719 10.125 L 17 10.125 L 17 18.109375 L 3.386719 18.109375 Z M 3.386719 10.125 " clip-rule="nonzero"/></clipPath><clipPath id="992e66adf8"><path d="M 16 10.125 L 24.429688 10.125 L 24.429688 18.109375 L 16 18.109375 Z M 16 10.125 " clip-rule="nonzero"/></clipPath></defs><g clip-path="url(#05e0c8b0de)"><path fill="#00acd7" d="M 4.992188 12.589844 C 4.953125 12.589844 4.941406 12.570312 4.960938 12.539062 L 5.175781 12.265625 C 5.195312 12.234375 5.246094 12.214844 5.289062 12.214844 L 8.910156 12.214844 C 8.953125 12.214844 8.960938 12.246094 8.941406 12.273438 L 8.769531 12.539062 C 8.746094 12.570312 8.699219 12.601562 8.667969 12.601562 Z M 3.460938 13.527344 C 3.417969 13.527344 3.410156 13.507812 3.429688 13.476562 L 3.644531 13.203125 C 3.664062 13.171875 3.714844 13.152344 3.753906 13.152344 L 8.382812 13.152344 C 8.421875 13.152344 8.445312 13.179688 8.433594 13.210938 L 8.351562 13.457031 C 8.34375 13.496094 8.300781 13.515625 8.261719 13.515625 Z M 5.917969 14.464844 C 5.875 14.464844 5.867188 14.433594 5.886719 14.402344 L 6.027344 14.148438 C 6.046875 14.117188 6.089844 14.085938 6.128906 14.085938 L 8.160156 14.085938 C 8.199219 14.085938 8.21875 14.117188 8.21875 14.160156 L 8.199219 14.402344 C 8.199219 14.445312 8.160156 14.472656 8.128906 14.472656 Z M 16.453125 12.40625 L 14.746094 12.855469 C 14.59375 12.894531 14.585938 12.90625 14.453125 12.753906 C 14.300781 12.582031 14.1875 12.46875 13.976562 12.367188 C 13.335938 12.050781 12.71875 12.140625 12.136719 12.519531 C 11.449219 12.96875 11.09375 13.628906 11.101562 14.453125 C 11.113281 15.269531 11.671875 15.941406 12.472656 16.050781 C 13.164062 16.144531 13.742188 15.898438 14.199219 15.378906 C 14.289062 15.269531 14.371094 15.144531 14.472656 15.003906 L 12.511719 15.003906 C 12.300781 15.003906 12.25 14.871094 12.320312 14.699219 C 12.453125 14.382812 12.695312 13.851562 12.839844 13.589844 C 12.867188 13.527344 12.941406 13.425781 13.09375 13.425781 L 16.785156 13.425781 C 16.765625 13.699219 16.765625 13.976562 16.726562 14.25 C 16.613281 14.984375 16.339844 15.65625 15.894531 16.246094 C 15.164062 17.214844 14.207031 17.8125 13 17.976562 C 12.007812 18.109375 11.082031 17.914062 10.269531 17.304688 C 9.519531 16.734375 9.09375 15.980469 8.980469 15.042969 C 8.851562 13.933594 9.175781 12.9375 9.84375 12.0625 C 10.566406 11.113281 11.519531 10.511719 12.6875 10.300781 C 13.640625 10.125 14.554688 10.238281 15.375 10.796875 C 15.914062 11.15625 16.300781 11.644531 16.554688 12.234375 C 16.613281 12.324219 16.574219 12.375 16.453125 12.40625 Z M 16.453125 12.40625 " fill-opacity="1" fill-rule="nonzero"/></g><g clip-path="url(#992e66adf8)"><path fill="#00acd7" d="M 19.8125 18.039062 C 18.886719 18.015625 18.046875 17.75 17.335938 17.140625 C 16.734375 16.621094 16.359375 15.960938 16.238281 15.175781 C 16.054688 14.027344 16.371094 13.007812 17.0625 12.101562 C 17.800781 11.125 18.695312 10.613281 19.902344 10.402344 C 20.9375 10.21875 21.914062 10.320312 22.796875 10.921875 C 23.597656 11.46875 24.09375 12.214844 24.226562 13.191406 C 24.398438 14.566406 24.003906 15.683594 23.058594 16.640625 C 22.390625 17.324219 21.566406 17.753906 20.625 17.945312 C 20.351562 17.996094 20.074219 18.007812 19.8125 18.039062 Z M 22.226562 13.925781 C 22.21875 13.792969 22.21875 13.691406 22.195312 13.589844 C 22.015625 12.582031 21.089844 12.011719 20.125 12.234375 C 19.183594 12.449219 18.574219 13.046875 18.351562 14.003906 C 18.167969 14.800781 18.554688 15.605469 19.285156 15.929688 C 19.84375 16.175781 20.398438 16.144531 20.9375 15.867188 C 21.738281 15.453125 22.175781 14.800781 22.226562 13.925781 Z M 22.226562 13.925781 " fill-opacity="1" fill-rule="nonzero"/></g></svg>