<svg xmlns="http://www.w3.org/2000/svg" xmlns:xlink="http://www.w3.org/1999/xlink" width="40" zoomAndPan="magnify" viewBox="0 0 30 30.000001" height="40" preserveAspectRatio="xMidYMid meet" version="1.0"><defs><clipPath id="f174e55a82"><path d="M 6.335938 4.65625 L 21.574219 4.65625 L 21.574219 22.070312 L 6.335938 22.070312 Z M 6.335938 4.65625 " clip-rule="nonzero"/></clipPath></defs><g clip-path="url(#f174e55a82)"><path fill="#64b8b1" d="M 6.339844 4.660156 L 7.726562 20.328125 L 13.957031 22.066406 L 20.183594 20.328125 L 21.574219 4.660156 Z M 18.566406 9.792969 L 11.261719 9.792969 L 11.4375 11.765625 L 18.390625 11.765625 L 17.867188 17.660156 L 13.957031 18.746094 L 13.953125 18.746094 L 10.042969 17.648438 L 9.769531 14.554688 L 11.6875 14.554688 L 11.828125 16.160156 L 13.953125 16.742188 L 13.957031 16.742188 L 16.085938 16.179688 L 16.308594 13.703125 L 9.691406 13.703125 L 9.175781 7.855469 L 18.734375 7.855469 Z M 18.566406 9.792969 " fill-opacity="1" fill-rule="nonzero"/></g></svg>