<svg xmlns="http://www.w3.org/2000/svg" xmlns:xlink="http://www.w3.org/1999/xlink" width="40" zoomAndPan="magnify" viewBox="0 0 30 30.000001" height="40" preserveAspectRatio="xMidYMid meet" version="1.0"><defs><clipPath id="4c17977a7b"><path d="M 6.253906 8.046875 L 24.394531 8.046875 L 24.394531 21.105469 L 6.253906 21.105469 Z M 6.253906 8.046875 " clip-rule="nonzero"/></clipPath></defs><g clip-path="url(#4c17977a7b)"><path fill="#ffcf2d" d="M 19.878906 21.09375 L 10.761719 21.054688 C 8.269531 21.050781 6.253906 19.085938 6.253906 16.664062 L 6.257812 12.4375 C 6.257812 10.015625 8.28125 8.050781 10.769531 8.054688 L 19.886719 8.09375 C 22.375 8.097656 24.394531 10.0625 24.390625 12.484375 L 24.390625 16.707031 C 24.386719 19.132812 22.367188 21.09375 19.878906 21.09375 Z M 19.878906 21.09375 " fill-opacity="1" fill-rule="nonzero"/></g><path fill="#ffffff" d="M 13.109375 10.664062 L 13.195312 10.664062 C 13.542969 10.664062 13.824219 10.9375 13.824219 11.273438 L 13.824219 15.949219 C 13.824219 16.671875 13.589844 17.246094 13.128906 17.667969 C 12.664062 18.09375 12.054688 18.304688 11.292969 18.304688 C 10.484375 18.304688 9.859375 18.109375 9.421875 17.710938 C 9.160156 17.472656 8.976562 17.179688 8.867188 16.835938 C 8.75 16.445312 9.054688 16.054688 9.472656 16.054688 L 9.550781 16.054688 C 9.832031 16.054688 10.085938 16.230469 10.152344 16.496094 C 10.203125 16.683594 10.289062 16.839844 10.410156 16.957031 C 10.613281 17.160156 10.90625 17.261719 11.292969 17.261719 C 11.65625 17.261719 11.945312 17.144531 12.160156 16.910156 C 12.375 16.675781 12.480469 16.355469 12.480469 15.945312 L 12.480469 11.273438 C 12.480469 10.9375 12.761719 10.664062 13.109375 10.664062 Z M 13.109375 10.664062 " fill-opacity="1" fill-rule="nonzero"/><path fill="#ffffff" d="M 19.410156 16.261719 C 19.410156 15.929688 19.292969 15.671875 19.050781 15.496094 C 18.8125 15.316406 18.378906 15.132812 17.753906 14.949219 C 17.132812 14.765625 16.632812 14.5625 16.265625 14.339844 C 15.558594 13.90625 15.207031 13.34375 15.207031 12.652344 C 15.207031 12.042969 15.460938 11.542969 15.96875 11.148438 C 16.480469 10.757812 17.140625 10.558594 17.953125 10.558594 C 18.492188 10.558594 18.972656 10.65625 19.394531 10.847656 C 19.816406 11.042969 20.148438 11.316406 20.390625 11.675781 C 20.464844 11.789062 20.53125 11.90625 20.582031 12.027344 C 20.753906 12.425781 20.441406 12.863281 20 12.863281 L 19.949219 12.863281 C 19.667969 12.863281 19.429688 12.679688 19.34375 12.417969 C 19.285156 12.230469 19.179688 12.070312 19.03125 11.9375 C 18.777344 11.714844 18.414062 11.605469 17.941406 11.605469 C 17.503906 11.605469 17.160156 11.695312 16.917969 11.878906 C 16.675781 12.0625 16.554688 12.316406 16.554688 12.644531 C 16.554688 12.921875 16.683594 13.152344 16.945312 13.335938 C 17.210938 13.523438 17.640625 13.703125 18.246094 13.875 C 18.847656 14.050781 19.332031 14.25 19.699219 14.472656 C 20.0625 14.695312 20.332031 14.949219 20.5 15.238281 C 20.671875 15.527344 20.757812 15.863281 20.757812 16.25 C 20.757812 16.878906 20.511719 17.378906 20.015625 17.75 C 19.519531 18.121094 18.847656 18.304688 18 18.304688 C 17.441406 18.304688 16.925781 18.203125 16.453125 18.003906 C 15.984375 17.800781 15.617188 17.523438 15.359375 17.167969 C 15.265625 17.042969 15.191406 16.910156 15.132812 16.769531 C 14.960938 16.367188 15.265625 15.925781 15.714844 15.925781 L 15.773438 15.925781 C 16.050781 15.925781 16.292969 16.101562 16.375 16.359375 C 16.441406 16.585938 16.566406 16.769531 16.75 16.917969 C 17.039062 17.152344 17.457031 17.269531 18 17.269531 C 18.46875 17.269531 18.820312 17.179688 19.058594 16.992188 C 19.292969 16.808594 19.410156 16.5625 19.410156 16.261719 Z M 19.410156 16.261719 " fill-opacity="1" fill-rule="nonzero"/></svg>