<svg xmlns="http://www.w3.org/2000/svg" xmlns:xlink="http://www.w3.org/1999/xlink" width="40" zoomAndPan="magnify" viewBox="0 0 30 30.000001" height="40" preserveAspectRatio="xMidYMid meet" version="1.0"><defs><clipPath id="1d6190ccd8"><path d="M 10 5.617188 L 20 5.617188 L 20 23.753906 L 10 23.753906 Z M 10 5.617188 " clip-rule="nonzero"/></clipPath></defs><g clip-path="url(#1d6190ccd8)"><path fill="#01ec64" d="M 16.59375 7.664062 C 15.84375 6.761719 15.199219 5.847656 15.066406 5.660156 C 15.0625 5.65625 15.058594 5.652344 15.054688 5.652344 C 15.050781 5.648438 15.046875 5.648438 15.042969 5.648438 C 15.039062 5.648438 15.035156 5.648438 15.027344 5.652344 C 15.023438 5.652344 15.019531 5.65625 15.019531 5.660156 C 14.886719 5.847656 14.242188 6.761719 13.492188 7.664062 C 7.066406 15.96875 14.503906 21.578125 14.503906 21.578125 L 14.566406 21.617188 C 14.621094 22.484375 14.761719 23.730469 14.761719 23.730469 L 15.316406 23.730469 C 15.316406 23.730469 15.453125 22.492188 15.511719 21.617188 L 15.574219 21.570312 C 15.578125 21.578125 23.019531 15.96875 16.59375 7.664062 Z M 15.039062 21.449219 C 15.039062 21.449219 14.707031 21.160156 14.617188 21.015625 L 14.617188 21 L 15.019531 11.953125 C 15.019531 11.925781 15.058594 11.925781 15.058594 11.953125 L 15.460938 21 L 15.460938 21.015625 C 15.371094 21.160156 15.039062 21.449219 15.039062 21.449219 Z M 15.039062 21.449219 " fill-opacity="1" fill-rule="nonzero"/></g></svg>