<svg xmlns="http://www.w3.org/2000/svg" xmlns:xlink="http://www.w3.org/1999/xlink" width="40" zoomAndPan="magnify" viewBox="0 0 30 30.000001" height="40" preserveAspectRatio="xMidYMid meet" version="1.0"><defs><clipPath id="e5fada9a2b"><path d="M 11 11 L 23.789062 11 L 23.789062 23.9375 L 11 23.9375 Z M 11 11 " clip-rule="nonzero"/></clipPath><clipPath id="d3dd0fb0a0"><path d="M 7.101562 6.523438 L 19 6.523438 L 19 19 L 7.101562 19 Z M 7.101562 6.523438 " clip-rule="nonzero"/></clipPath><clipPath id="66551d333a"><path d="M 7.101562 10 L 23.789062 10 L 23.789062 23.9375 L 7.101562 23.9375 Z M 7.101562 10 " clip-rule="nonzero"/></clipPath><clipPath id="2b4bdcaa06"><path d="M 7.101562 6.523438 L 19 6.523438 L 19 15 L 7.101562 15 Z M 7.101562 6.523438 " clip-rule="nonzero"/></clipPath><clipPath id="1302997e78"><path d="M 7.101562 15 L 8 15 L 8 16 L 7.101562 16 Z M 7.101562 15 " clip-rule="nonzero"/></clipPath></defs><g clip-path="url(#e5fada9a2b)"><path fill="#f0c020" d="M 23.230469 13.011719 C 23.554688 14.4375 23.550781 15.859375 23.21875 17.28125 C 23.125 17.691406 22.917969 18.027344 22.597656 18.289062 C 22.277344 18.550781 21.914062 18.683594 21.503906 18.683594 L 18.816406 18.683594 L 18.816406 21.457031 C 18.816406 22.246094 18.320312 23.019531 17.421875 23.238281 C 16.054688 23.566406 14.691406 23.566406 13.324219 23.238281 C 12.425781 23.019531 11.925781 22.25 11.925781 21.457031 L 11.925781 16.945312 C 11.925781 16.703125 11.972656 16.472656 12.058594 16.25 C 12.148438 16.027344 12.277344 15.832031 12.441406 15.660156 C 12.605469 15.492188 12.796875 15.359375 13.015625 15.265625 C 13.230469 15.175781 13.453125 15.128906 13.6875 15.128906 L 17.054688 15.128906 C 17.289062 15.128906 17.511719 15.082031 17.730469 14.988281 C 17.945312 14.898438 18.136719 14.765625 18.300781 14.597656 C 18.464844 14.425781 18.59375 14.230469 18.683594 14.007812 C 18.773438 13.785156 18.816406 13.550781 18.816406 13.3125 L 18.816406 11.574219 L 21.503906 11.574219 C 21.921875 11.574219 22.289062 11.707031 22.613281 11.976562 C 22.9375 12.246094 23.140625 12.59375 23.230469 13.011719 Z M 23.230469 13.011719 " fill-opacity="1" fill-rule="nonzero"/></g><g clip-path="url(#d3dd0fb0a0)"><path fill="#72c1e8" d="M 18.816406 8.800781 L 18.816406 13.3125 C 18.816406 13.550781 18.773438 13.785156 18.683594 14.007812 C 18.59375 14.230469 18.464844 14.425781 18.300781 14.597656 C 18.136719 14.765625 17.945312 14.898438 17.730469 14.992188 C 17.511719 15.082031 17.289062 15.128906 17.054688 15.128906 L 13.6875 15.128906 C 13.453125 15.128906 13.230469 15.175781 13.015625 15.265625 C 12.796875 15.359375 12.609375 15.492188 12.441406 15.660156 C 12.277344 15.832031 12.148438 16.027344 12.058594 16.25 C 11.972656 16.472656 11.925781 16.703125 11.925781 16.945312 L 11.925781 18.683594 L 9.238281 18.683594 C 8.828125 18.683594 8.464844 18.550781 8.144531 18.289062 C 7.824219 18.027344 7.617188 17.691406 7.523438 17.28125 C 7.1875 15.847656 7.1875 14.410156 7.523438 12.972656 C 7.617188 12.5625 7.824219 12.226562 8.144531 11.964844 C 8.464844 11.703125 8.828125 11.574219 9.238281 11.574219 L 11.925781 11.574219 L 11.925781 8.800781 C 11.925781 8.371094 12.054688 7.988281 12.316406 7.65625 C 12.578125 7.324219 12.914062 7.109375 13.320312 7.023438 C 14.683594 6.691406 16.050781 6.691406 17.414062 7.019531 C 18.308594 7.234375 18.816406 7.996094 18.816406 8.800781 Z M 18.816406 8.800781 " fill-opacity="1" fill-rule="nonzero"/></g><path fill="#ffffff" d="M 14.449219 9.109375 C 14.507812 9.253906 14.507812 9.398438 14.449219 9.542969 C 14.390625 9.691406 14.292969 9.792969 14.152344 9.851562 C 14.011719 9.914062 13.871094 9.914062 13.730469 9.851562 C 13.589844 9.792969 13.492188 9.691406 13.433594 9.542969 C 13.375 9.398438 13.375 9.253906 13.433594 9.109375 C 13.492188 8.964844 13.589844 8.863281 13.730469 8.800781 C 13.871094 8.742188 14.011719 8.742188 14.152344 8.800781 C 14.292969 8.863281 14.390625 8.964844 14.449219 9.109375 Z M 14.449219 9.109375 " fill-opacity="1" fill-rule="nonzero"/><path fill="#ffffff" d="M 17.355469 20.929688 C 17.355469 21.085938 17.300781 21.21875 17.191406 21.328125 C 17.085938 21.441406 16.957031 21.496094 16.804688 21.496094 C 16.652344 21.496094 16.519531 21.441406 16.414062 21.328125 C 16.304688 21.21875 16.253906 21.085938 16.253906 20.929688 C 16.253906 20.769531 16.304688 20.636719 16.414062 20.527344 C 16.519531 20.414062 16.652344 20.359375 16.804688 20.359375 C 16.957031 20.359375 17.085938 20.414062 17.191406 20.527344 C 17.300781 20.636719 17.355469 20.769531 17.355469 20.929688 Z M 17.355469 20.929688 " fill-opacity="1" fill-rule="nonzero"/><path fill="#f9e5af" d="M 18.121094 21.664062 C 18.011719 21.664062 17.957031 21.609375 17.957031 21.496094 L 17.957031 21.167969 C 17.957031 21.054688 18.011719 21 18.121094 21 C 18.230469 21 18.285156 21.054688 18.285156 21.167969 L 18.285156 21.496094 C 18.285156 21.609375 18.230469 21.664062 18.121094 21.664062 Z M 18.121094 20.660156 C 18.011719 20.660156 17.957031 20.605469 17.957031 20.492188 L 17.957031 17.738281 C 17.957031 17.625 18.011719 17.570312 18.121094 17.570312 L 21.503906 17.570312 C 21.664062 17.570312 21.804688 17.519531 21.929688 17.417969 C 22.054688 17.316406 22.132812 17.1875 22.167969 17.027344 C 22.460938 15.761719 22.460938 14.496094 22.167969 13.226562 C 22.132812 13.070312 22.050781 12.941406 21.929688 12.839844 C 21.804688 12.738281 21.664062 12.6875 21.503906 12.6875 C 21.398438 12.6875 21.34375 12.632812 21.34375 12.519531 C 21.34375 12.40625 21.398438 12.351562 21.503906 12.351562 C 21.945312 12.351562 22.371094 12.636719 22.496094 13.1875 C 22.792969 14.492188 22.789062 15.796875 22.488281 17.105469 C 22.433594 17.339844 22.316406 17.53125 22.132812 17.683594 C 21.949219 17.832031 21.738281 17.90625 21.503906 17.90625 L 18.285156 17.90625 L 18.285156 20.492188 C 18.285156 20.605469 18.230469 20.660156 18.121094 20.660156 Z M 18.121094 20.660156 " fill-opacity="1" fill-rule="nonzero"/><path fill="#c5e5ff" d="M 11.007812 17.90625 C 10.902344 17.90625 10.847656 17.851562 10.847656 17.738281 L 10.847656 17.433594 C 10.847656 17.320312 10.902344 17.265625 11.007812 17.265625 C 11.117188 17.265625 11.171875 17.320312 11.171875 17.433594 L 11.171875 17.738281 C 11.171875 17.851562 11.117188 17.90625 11.007812 17.90625 Z M 11.003906 16.929688 C 10.894531 16.921875 10.84375 16.859375 10.851562 16.75 C 10.878906 16.378906 10.96875 16.023438 11.121094 15.6875 C 11.277344 15.355469 11.484375 15.058594 11.75 14.804688 C 12.011719 14.550781 12.3125 14.355469 12.644531 14.21875 C 12.980469 14.082031 13.328125 14.015625 13.6875 14.015625 L 17.054688 14.015625 C 17.242188 14.015625 17.402344 13.945312 17.535156 13.808594 C 17.667969 13.671875 17.734375 13.503906 17.734375 13.3125 L 17.734375 8.800781 C 17.738281 8.636719 17.6875 8.492188 17.589844 8.363281 C 17.492188 8.234375 17.367188 8.152344 17.210938 8.117188 L 17.167969 8.105469 C 17.0625 8.078125 17.023438 8.011719 17.046875 7.902344 C 17.070312 7.792969 17.136719 7.75 17.242188 7.777344 L 17.285156 7.785156 C 17.515625 7.839844 17.703125 7.964844 17.847656 8.152344 C 17.992188 8.34375 18.0625 8.558594 18.0625 8.800781 L 18.0625 13.3125 C 18.0625 13.449219 18.039062 13.582031 17.988281 13.707031 C 17.933594 13.835938 17.863281 13.949219 17.769531 14.046875 C 17.671875 14.144531 17.5625 14.21875 17.441406 14.273438 C 17.316406 14.324219 17.1875 14.351562 17.054688 14.351562 L 13.6875 14.351562 C 13.371094 14.351562 13.0625 14.414062 12.765625 14.535156 C 12.46875 14.65625 12.207031 14.828125 11.972656 15.050781 C 11.738281 15.277344 11.554688 15.535156 11.417969 15.832031 C 11.28125 16.128906 11.203125 16.441406 11.179688 16.769531 C 11.171875 16.882812 11.113281 16.933594 11.003906 16.929688 Z M 11.003906 16.929688 " fill-opacity="1" fill-rule="nonzero"/><g clip-path="url(#66551d333a)"><path fill="#000000" d="M 23.378906 12.933594 C 23.277344 12.488281 23.050781 12.121094 22.699219 11.835938 C 22.351562 11.546875 21.953125 11.40625 21.503906 11.40625 L 18.980469 11.40625 L 18.980469 10.625 C 18.972656 10.519531 18.917969 10.464844 18.816406 10.464844 C 18.714844 10.464844 18.660156 10.515625 18.652344 10.621094 C 18.652344 10.621094 18.652344 10.625 18.652344 10.625 L 18.652344 13.3125 C 18.652344 13.53125 18.609375 13.738281 18.527344 13.941406 C 18.449219 14.144531 18.332031 14.320312 18.183594 14.476562 C 18.03125 14.628906 17.859375 14.75 17.664062 14.832031 C 17.46875 14.917969 17.265625 14.960938 17.054688 14.960938 L 13.6875 14.960938 C 13.433594 14.960938 13.1875 15.011719 12.949219 15.109375 C 12.714844 15.210938 12.507812 15.355469 12.324219 15.542969 C 12.144531 15.726562 12.007812 15.941406 11.910156 16.1875 C 11.8125 16.429688 11.761719 16.683594 11.761719 16.945312 L 11.761719 18.515625 L 9.238281 18.515625 C 8.867188 18.515625 8.535156 18.398438 8.242188 18.160156 C 7.953125 17.921875 7.765625 17.617188 7.683594 17.246094 C 7.589844 16.847656 7.523438 16.449219 7.484375 16.042969 C 7.472656 15.933594 7.414062 15.882812 7.304688 15.894531 C 7.195312 15.90625 7.148438 15.964844 7.15625 16.078125 C 7.199219 16.496094 7.269531 16.910156 7.363281 17.320312 C 7.414062 17.539062 7.496094 17.742188 7.613281 17.933594 C 7.730469 18.121094 7.871094 18.285156 8.042969 18.421875 C 8.210938 18.5625 8.398438 18.667969 8.605469 18.742188 C 8.808594 18.816406 9.019531 18.851562 9.238281 18.851562 L 11.761719 18.851562 L 11.761719 21.457031 C 11.761719 21.683594 11.800781 21.90625 11.871094 22.121094 C 11.945312 22.332031 12.050781 22.527344 12.191406 22.707031 C 12.328125 22.882812 12.492188 23.03125 12.679688 23.148438 C 12.867188 23.269531 13.066406 23.351562 13.28125 23.398438 C 13.589844 23.449219 15.15625 23.9375 17.472656 23.398438 C 17.6875 23.347656 17.886719 23.265625 18.070312 23.144531 C 18.257812 23.023438 18.417969 22.878906 18.554688 22.699219 C 18.695312 22.523438 18.796875 22.328125 18.871094 22.117188 C 18.945312 21.902344 18.980469 21.683594 18.980469 21.457031 L 18.980469 18.851562 L 19.765625 18.851562 C 19.875 18.851562 19.929688 18.796875 19.929688 18.683594 C 19.929688 18.570312 19.875 18.515625 19.765625 18.515625 L 15.371094 18.515625 C 15.261719 18.515625 15.207031 18.570312 15.207031 18.683594 C 15.207031 18.796875 15.261719 18.851562 15.371094 18.851562 L 18.652344 18.851562 L 18.652344 21.457031 C 18.652344 21.847656 18.535156 22.195312 18.296875 22.5 C 18.058594 22.800781 17.753906 22.992188 17.382812 23.070312 C 16.042969 23.394531 14.703125 23.394531 13.363281 23.074219 C 12.535156 22.871094 12.089844 22.175781 12.089844 21.457031 L 12.089844 16.945312 C 12.089844 16.726562 12.132812 16.519531 12.210938 16.316406 C 12.292969 16.113281 12.410156 15.9375 12.558594 15.78125 C 12.710938 15.628906 12.882812 15.507812 13.078125 15.425781 C 13.273438 15.339844 13.476562 15.296875 13.6875 15.296875 L 17.054688 15.296875 C 17.308594 15.296875 17.554688 15.246094 17.792969 15.144531 C 18.027344 15.046875 18.234375 14.902344 18.414062 14.714844 C 18.597656 14.527344 18.734375 14.3125 18.832031 14.070312 C 18.929688 13.828125 18.980469 13.574219 18.980469 13.3125 L 18.980469 11.742188 L 21.503906 11.742188 C 21.878906 11.742188 22.210938 11.859375 22.503906 12.101562 C 22.796875 12.34375 22.984375 12.652344 23.0625 13.027344 C 23.066406 13.035156 23.066406 13.042969 23.070312 13.050781 C 23.402344 14.511719 23.359375 16.058594 23.058594 17.242188 C 22.976562 17.617188 22.789062 17.921875 22.5 18.160156 C 22.207031 18.398438 21.875 18.515625 21.503906 18.515625 L 21.074219 18.515625 C 20.964844 18.515625 20.910156 18.570312 20.910156 18.683594 C 20.910156 18.796875 20.964844 18.851562 21.074219 18.851562 L 21.503906 18.851562 C 21.722656 18.851562 21.933594 18.816406 22.136719 18.742188 C 22.34375 18.667969 22.53125 18.5625 22.699219 18.421875 C 22.871094 18.285156 23.015625 18.121094 23.128906 17.929688 C 23.246094 17.742188 23.328125 17.539062 23.378906 17.320312 C 23.785156 15.550781 23.636719 14.371094 23.378906 12.933594 Z M 23.378906 12.933594 " fill-opacity="1" fill-rule="nonzero"/></g><path fill="#000000" d="M 20.585938 18.683594 C 20.585938 18.796875 20.53125 18.851562 20.421875 18.851562 C 20.3125 18.851562 20.257812 18.796875 20.257812 18.683594 C 20.257812 18.570312 20.3125 18.515625 20.421875 18.515625 C 20.53125 18.515625 20.585938 18.570312 20.585938 18.683594 Z M 20.585938 18.683594 " fill-opacity="1" fill-rule="nonzero"/><path fill="#000000" d="M 18.816406 9.78125 C 18.707031 9.777344 18.652344 9.835938 18.652344 9.949219 C 18.652344 10.058594 18.707031 10.117188 18.816406 10.117188 C 18.925781 10.117188 18.980469 10.0625 18.980469 9.949219 C 18.980469 9.835938 18.925781 9.78125 18.816406 9.78125 Z M 18.816406 9.78125 " fill-opacity="1" fill-rule="nonzero"/><g clip-path="url(#2b4bdcaa06)"><path fill="#000000" d="M 7.285156 14.882812 C 7.386719 14.882812 7.441406 14.828125 7.449219 14.722656 L 7.449219 14.71875 C 7.472656 14.144531 7.550781 13.574219 7.683594 13.011719 C 7.765625 12.640625 7.953125 12.335938 8.242188 12.097656 C 8.535156 11.859375 8.867188 11.742188 9.238281 11.742188 L 15.371094 11.742188 C 15.480469 11.742188 15.535156 11.6875 15.535156 11.574219 C 15.535156 11.460938 15.480469 11.40625 15.371094 11.40625 L 12.089844 11.40625 L 12.089844 8.800781 C 12.089844 8.410156 12.207031 8.0625 12.445312 7.757812 C 12.683594 7.457031 12.988281 7.265625 13.359375 7.1875 C 14.746094 6.847656 16.203125 6.882812 17.390625 7.1875 C 17.757812 7.269531 18.0625 7.460938 18.300781 7.761719 C 18.535156 8.066406 18.652344 8.410156 18.652344 8.800781 L 18.652344 9.273438 C 18.652344 9.386719 18.707031 9.441406 18.816406 9.441406 C 18.925781 9.441406 18.980469 9.386719 18.980469 9.273438 L 18.980469 8.800781 C 18.980469 7.925781 18.421875 7.089844 17.453125 6.855469 C 16.0625 6.519531 14.671875 6.519531 13.28125 6.855469 C 13.066406 6.90625 12.867188 6.988281 12.679688 7.109375 C 12.492188 7.226562 12.328125 7.375 12.191406 7.550781 C 12.050781 7.726562 11.945312 7.921875 11.871094 8.136719 C 11.800781 8.351562 11.761719 8.574219 11.761719 8.800781 L 11.761719 11.40625 L 9.238281 11.40625 C 8.398438 11.40625 7.585938 11.972656 7.351562 12.976562 C 7.222656 13.546875 7.148438 14.121094 7.121094 14.703125 C 7.117188 14.820312 7.171875 14.882812 7.285156 14.882812 Z M 7.285156 14.882812 " fill-opacity="1" fill-rule="nonzero"/></g><g clip-path="url(#1302997e78)"><path fill="#000000" d="M 7.28125 15.554688 C 7.390625 15.554688 7.445312 15.496094 7.441406 15.382812 C 7.441406 15.269531 7.382812 15.214844 7.273438 15.21875 C 7.164062 15.222656 7.113281 15.28125 7.113281 15.390625 C 7.117188 15.503906 7.171875 15.558594 7.28125 15.554688 Z M 7.28125 15.554688 " fill-opacity="1" fill-rule="nonzero"/></g><path fill="#000000" d="M 13.226562 9.328125 C 13.226562 9.53125 13.292969 9.707031 13.433594 9.851562 C 13.574219 9.996094 13.742188 10.066406 13.9375 10.066406 C 14.136719 10.066406 14.304688 9.996094 14.445312 9.851562 C 14.582031 9.707031 14.652344 9.53125 14.652344 9.328125 C 14.652344 9.125 14.582031 8.953125 14.445312 8.808594 C 14.304688 8.664062 14.136719 8.59375 13.9375 8.59375 C 13.742188 8.59375 13.574219 8.664062 13.433594 8.808594 C 13.296875 8.953125 13.226562 9.125 13.226562 9.328125 Z M 14.324219 9.328125 C 14.324219 9.441406 14.289062 9.535156 14.210938 9.613281 C 14.136719 9.691406 14.046875 9.726562 13.9375 9.726562 C 13.832031 9.726562 13.742188 9.6875 13.664062 9.613281 C 13.589844 9.535156 13.550781 9.4375 13.550781 9.328125 C 13.550781 9.21875 13.589844 9.125 13.664062 9.046875 C 13.742188 8.96875 13.832031 8.929688 13.9375 8.929688 C 14.046875 8.929688 14.136719 8.96875 14.210938 9.046875 C 14.289062 9.125 14.324219 9.21875 14.324219 9.328125 Z M 14.324219 9.328125 " fill-opacity="1" fill-rule="nonzero"/><path fill="#000000" d="M 17.515625 20.929688 C 17.515625 20.726562 17.449219 20.550781 17.308594 20.40625 C 17.167969 20.261719 17 20.191406 16.804688 20.191406 C 16.605469 20.191406 16.4375 20.261719 16.296875 20.40625 C 16.160156 20.550781 16.089844 20.722656 16.089844 20.929688 C 16.089844 21.132812 16.160156 21.304688 16.296875 21.449219 C 16.4375 21.59375 16.605469 21.664062 16.804688 21.664062 C 17 21.664062 17.167969 21.59375 17.308594 21.449219 C 17.449219 21.304688 17.515625 21.132812 17.515625 20.929688 Z M 16.417969 20.929688 C 16.417969 20.816406 16.453125 20.722656 16.53125 20.644531 C 16.605469 20.566406 16.695312 20.527344 16.804688 20.527344 C 16.910156 20.527344 17 20.566406 17.078125 20.644531 C 17.152344 20.722656 17.191406 20.816406 17.191406 20.929688 C 17.191406 21.039062 17.152344 21.132812 17.078125 21.210938 C 17 21.289062 16.910156 21.328125 16.804688 21.328125 C 16.695312 21.328125 16.605469 21.289062 16.53125 21.210938 C 16.453125 21.132812 16.417969 21.039062 16.417969 20.929688 Z M 16.417969 20.929688 " fill-opacity="1" fill-rule="nonzero"/></svg>