<svg xmlns="http://www.w3.org/2000/svg" xmlns:xlink="http://www.w3.org/1999/xlink" width="40" zoomAndPan="magnify" viewBox="0 0 30 30.000001" height="40" preserveAspectRatio="xMidYMid meet" version="1.0"><defs><clipPath id="5caff2b78a"><path d="M 4.765625 5 L 25.082031 5 L 25.082031 24 L 4.765625 24 Z M 4.765625 5 " clip-rule="nonzero"/></clipPath></defs><path fill="#8bb7f0" d="M 16.605469 14.421875 C 16.605469 15.351562 15.851562 16.101562 14.925781 16.101562 C 13.996094 16.101562 13.242188 15.351562 13.242188 14.421875 C 13.242188 13.496094 13.996094 12.746094 14.925781 12.746094 C 15.851562 12.746094 16.605469 13.496094 16.605469 14.421875 Z M 16.605469 14.421875 " fill-opacity="1" fill-rule="nonzero"/><path fill="#4e7ab5" d="M 14.925781 16.433594 C 13.8125 16.433594 12.90625 15.53125 12.90625 14.421875 C 12.90625 13.3125 13.8125 12.410156 14.925781 12.410156 C 16.035156 12.410156 16.941406 13.3125 16.941406 14.421875 C 16.941406 15.53125 16.035156 16.433594 14.925781 16.433594 Z M 14.925781 13.082031 C 14.183594 13.082031 13.578125 13.683594 13.578125 14.421875 C 13.578125 15.164062 14.183594 15.765625 14.925781 15.765625 C 15.664062 15.765625 16.269531 15.164062 16.269531 14.421875 C 16.269531 13.683594 15.664062 13.082031 14.925781 13.082031 Z M 14.925781 13.082031 " fill-opacity="1" fill-rule="nonzero"/><path fill="#8bb7f0" d="M 24.671875 14.421875 C 24.671875 12.980469 23.265625 11.742188 21.003906 10.957031 C 21.507812 8.539062 21.59375 6.707031 19.871094 5.6875 C 19.511719 5.476562 19.101562 5.367188 18.652344 5.367188 C 17.542969 5.367188 16.238281 6.039062 14.925781 7.207031 C 13.609375 6.039062 12.304688 5.363281 11.195312 5.363281 C 10.746094 5.363281 10.335938 5.472656 9.976562 5.683594 C 8.882812 6.332031 8.179688 7.777344 8.84375 10.957031 C 6.582031 11.746094 5.175781 12.980469 5.175781 14.421875 C 5.175781 15.867188 6.582031 17.101562 8.84375 17.886719 C 8.316406 20.40625 8.355469 22.199219 9.976562 23.160156 C 10.335938 23.371094 10.746094 23.480469 11.195312 23.480469 C 12.304688 23.480469 13.609375 22.808594 14.925781 21.636719 C 16.238281 22.808594 17.542969 23.480469 18.652344 23.480469 C 19.101562 23.480469 19.511719 23.371094 19.871094 23.160156 C 21.476562 22.207031 21.546875 20.480469 21.007812 17.886719 C 23.265625 17.101562 24.671875 15.867188 24.671875 14.421875 Z M 19.183594 6.839844 C 20.203125 7.441406 20.074219 8.640625 19.699219 10.574219 C 19.027344 10.410156 18.296875 10.285156 17.527344 10.199219 C 17 9.445312 16.449219 8.761719 15.890625 8.160156 C 16.980469 7.207031 17.964844 6.710938 18.652344 6.710938 C 18.859375 6.707031 19.035156 6.753906 19.183594 6.839844 Z M 19.09375 16.082031 C 19.199219 16.378906 19.289062 16.667969 19.375 16.953125 C 19.09375 17.023438 18.804688 17.085938 18.5 17.140625 C 18.59375 16.988281 18.683594 16.835938 18.773438 16.679688 C 18.882812 16.484375 18.988281 16.28125 19.09375 16.082031 Z M 17.597656 16.019531 C 17.328125 16.5 17.050781 16.949219 16.769531 17.375 C 16.179688 17.425781 15.5625 17.457031 14.925781 17.457031 C 14.285156 17.457031 13.667969 17.425781 13.074219 17.375 C 12.792969 16.949219 12.515625 16.5 12.246094 16.019531 C 11.941406 15.480469 11.671875 14.949219 11.429688 14.421875 C 11.671875 13.898438 11.941406 13.363281 12.246094 12.824219 C 12.515625 12.347656 12.792969 11.894531 13.074219 11.472656 C 13.667969 11.417969 14.285156 11.386719 14.925781 11.386719 C 15.566406 11.386719 16.179688 11.417969 16.773438 11.472656 C 17.054688 11.894531 17.332031 12.347656 17.601562 12.824219 C 17.90625 13.363281 18.175781 13.898438 18.417969 14.421875 C 18.175781 14.949219 17.902344 15.480469 17.597656 16.019531 Z M 14.925781 19.746094 C 14.648438 19.453125 14.375 19.128906 14.097656 18.78125 C 14.371094 18.789062 14.644531 18.796875 14.925781 18.796875 C 15.203125 18.796875 15.480469 18.789062 15.75 18.78125 C 15.472656 19.128906 15.199219 19.453125 14.925781 19.746094 Z M 11.074219 16.679688 C 11.164062 16.835938 11.253906 16.984375 11.34375 17.136719 C 11.042969 17.082031 10.753906 17.019531 10.472656 16.953125 C 10.558594 16.667969 10.648438 16.378906 10.753906 16.082031 C 10.859375 16.28125 10.964844 16.484375 11.074219 16.679688 Z M 10.753906 12.761719 C 10.648438 12.464844 10.558594 12.175781 10.472656 11.894531 C 10.753906 11.824219 11.042969 11.761719 11.347656 11.707031 C 11.253906 11.859375 11.164062 12.007812 11.074219 12.164062 C 10.964844 12.363281 10.859375 12.5625 10.753906 12.761719 Z M 14.925781 9.101562 C 15.199219 9.394531 15.472656 9.71875 15.75 10.066406 C 15.476562 10.054688 15.203125 10.046875 14.925781 10.046875 C 14.644531 10.046875 14.371094 10.054688 14.097656 10.0625 C 14.375 9.71875 14.648438 9.394531 14.925781 9.101562 Z M 18.769531 12.167969 C 18.683594 12.007812 18.589844 11.859375 18.5 11.707031 C 18.804688 11.761719 19.09375 11.824219 19.375 11.894531 C 19.289062 12.175781 19.199219 12.464844 19.09375 12.765625 C 18.988281 12.5625 18.882812 12.363281 18.769531 12.167969 Z M 10.664062 6.839844 C 10.8125 6.75 10.988281 6.707031 11.195312 6.707031 C 11.882812 6.707031 12.871094 7.207031 13.957031 8.160156 C 13.398438 8.757812 12.847656 9.441406 12.320312 10.195312 C 11.550781 10.285156 10.820312 10.410156 10.148438 10.574219 C 9.621094 7.871094 10.269531 7.074219 10.664062 6.839844 Z M 6.519531 14.421875 C 6.519531 13.664062 7.527344 12.863281 9.183594 12.273438 C 9.394531 12.984375 9.65625 13.703125 9.964844 14.421875 C 9.65625 15.140625 9.394531 15.863281 9.183594 16.570312 C 7.527344 15.980469 6.519531 15.179688 6.519531 14.421875 Z M 10.664062 22.007812 C 9.746094 21.464844 9.75 20.308594 10.148438 18.273438 C 10.820312 18.433594 11.550781 18.558594 12.320312 18.648438 C 12.847656 19.402344 13.402344 20.089844 13.960938 20.691406 C 12.554688 21.921875 11.3125 22.390625 10.664062 22.007812 Z M 19.183594 22.003906 C 19.035156 22.09375 18.859375 22.136719 18.652344 22.136719 C 17.964844 22.136719 16.976562 21.636719 15.890625 20.6875 C 16.449219 20.085938 17 19.402344 17.527344 18.648438 C 18.296875 18.558594 19.027344 18.433594 19.699219 18.273438 C 20.109375 20.378906 20.085938 21.472656 19.183594 22.003906 Z M 20.664062 16.570312 C 20.453125 15.863281 20.1875 15.140625 19.882812 14.421875 C 20.191406 13.703125 20.453125 12.984375 20.664062 12.273438 C 22.320312 12.863281 23.328125 13.664062 23.328125 14.421875 C 23.328125 15.179688 22.320312 15.980469 20.664062 16.570312 Z M 20.664062 16.570312 " fill-opacity="1" fill-rule="nonzero"/><g clip-path="url(#5caff2b78a)"><path fill="#4e7ab5" d="M 11.195312 23.816406 C 10.6875 23.816406 10.21875 23.691406 9.804688 23.449219 C 8.21875 22.511719 7.941406 20.878906 8.457031 18.105469 C 6.152344 17.238281 4.839844 15.90625 4.839844 14.421875 C 4.839844 12.9375 6.152344 11.605469 8.457031 10.738281 C 7.816406 7.296875 8.734375 6.03125 9.804688 5.394531 C 11.113281 4.625 12.972656 5.105469 14.925781 6.761719 C 16.875 5.105469 18.730469 4.625 20.042969 5.398438 C 21.730469 6.394531 21.886719 8.070312 21.390625 10.738281 C 23.695312 11.605469 25.007812 12.9375 25.007812 14.421875 C 25.007812 15.90625 23.695312 17.238281 21.390625 18.105469 C 21.921875 20.953125 21.613281 22.519531 20.042969 23.445312 C 18.730469 24.21875 16.875 23.738281 14.925781 22.082031 C 13.585938 23.21875 12.304688 23.816406 11.195312 23.816406 Z M 11.195312 5.699219 C 10.808594 5.699219 10.457031 5.792969 10.148438 5.972656 C 8.910156 6.707031 8.707031 8.65625 9.171875 10.886719 L 9.230469 11.175781 L 8.953125 11.273438 C 6.765625 12.035156 5.511719 13.183594 5.511719 14.421875 C 5.511719 15.660156 6.765625 16.808594 8.953125 17.570312 L 9.230469 17.667969 L 9.171875 17.957031 C 8.84375 19.527344 8.382812 21.828125 10.148438 22.871094 C 11.238281 23.515625 12.929688 22.964844 14.699219 21.386719 L 14.925781 21.1875 L 15.148438 21.386719 C 16.921875 22.964844 18.609375 23.511719 19.699219 22.871094 C 21.453125 21.835938 21.019531 19.601562 20.675781 17.957031 L 20.617188 17.667969 L 20.894531 17.570312 C 23.082031 16.808594 24.335938 15.660156 24.335938 14.421875 C 24.335938 13.183594 23.082031 12.035156 20.894531 11.273438 L 20.617188 11.175781 L 20.675781 10.886719 C 20.984375 9.421875 21.570312 7.082031 19.699219 5.976562 C 18.609375 5.332031 16.921875 5.882812 15.148438 7.460938 L 14.925781 7.660156 L 14.699219 7.460938 C 13.425781 6.324219 12.183594 5.699219 11.195312 5.699219 Z M 11.195312 22.472656 C 10.929688 22.472656 10.691406 22.414062 10.492188 22.292969 C 9.4375 21.671875 9.382812 20.441406 9.816406 18.207031 L 9.882812 17.863281 L 10.226562 17.945312 C 10.871094 18.101562 11.589844 18.226562 12.355469 18.3125 L 12.507812 18.332031 L 12.59375 18.457031 C 13.113281 19.195312 13.660156 19.871094 14.207031 20.460938 L 14.441406 20.714844 L 14.183594 20.941406 C 13.054688 21.929688 11.996094 22.472656 11.195312 22.472656 Z M 10.414062 18.679688 C 10.085938 20.679688 10.214844 21.351562 10.835938 21.71875 C 10.929688 21.773438 11.050781 21.800781 11.195312 21.800781 C 11.769531 21.800781 12.589844 21.386719 13.476562 20.660156 C 13.019531 20.144531 12.566406 19.578125 12.128906 18.964844 C 11.523438 18.890625 10.949219 18.792969 10.414062 18.679688 Z M 18.652344 22.472656 C 17.859375 22.472656 16.796875 21.925781 15.667969 20.9375 L 15.410156 20.710938 L 15.644531 20.457031 C 16.191406 19.867188 16.734375 19.195312 17.253906 18.457031 L 17.339844 18.332031 L 17.488281 18.316406 C 18.257812 18.226562 18.976562 18.101562 19.621094 17.945312 L 19.964844 17.863281 L 20.03125 18.207031 C 20.476562 20.511719 20.398438 21.675781 19.355469 22.292969 C 19.152344 22.414062 18.921875 22.472656 18.652344 22.472656 Z M 16.371094 20.65625 C 17.496094 21.578125 18.53125 22 19.011719 21.714844 C 19.621094 21.359375 19.773438 20.753906 19.429688 18.679688 C 18.898438 18.792969 18.324219 18.890625 17.714844 18.964844 C 17.28125 19.574219 16.828125 20.140625 16.371094 20.65625 Z M 14.925781 20.238281 L 14.679688 19.976562 C 14.402344 19.679688 14.117188 19.347656 13.832031 18.988281 L 13.382812 18.421875 L 14.109375 18.445312 C 14.648438 18.464844 15.203125 18.464844 15.738281 18.445312 L 16.464844 18.421875 L 16.015625 18.988281 C 15.738281 19.339844 15.453125 19.671875 15.171875 19.976562 Z M 14.925781 17.792969 C 14.304688 17.792969 13.671875 17.765625 13.046875 17.707031 L 12.882812 17.695312 L 12.796875 17.558594 C 12.5 17.113281 12.214844 16.652344 11.953125 16.1875 C 11.65625 15.65625 11.375 15.109375 11.125 14.5625 L 11.058594 14.421875 L 11.125 14.28125 C 11.375 13.734375 11.65625 13.191406 11.953125 12.660156 C 12.214844 12.199219 12.496094 11.734375 12.796875 11.289062 L 12.882812 11.152344 L 13.046875 11.136719 C 14.296875 11.027344 15.542969 11.027344 16.800781 11.136719 L 16.960938 11.152344 L 17.050781 11.289062 C 17.347656 11.734375 17.628906 12.195312 17.890625 12.660156 C 18.191406 13.191406 18.46875 13.734375 18.722656 14.28125 L 18.785156 14.421875 L 18.722656 14.5625 C 18.46875 15.109375 18.191406 15.65625 17.890625 16.183594 C 17.636719 16.636719 17.363281 17.085938 17.046875 17.558594 L 16.960938 17.695312 L 16.796875 17.707031 C 16.171875 17.765625 15.542969 17.792969 14.925781 17.792969 Z M 13.265625 17.054688 C 14.375 17.144531 15.472656 17.144531 16.578125 17.054688 C 16.84375 16.644531 17.085938 16.25 17.308594 15.855469 C 17.570312 15.386719 17.820312 14.90625 18.046875 14.421875 C 17.820312 13.9375 17.570312 13.457031 17.308594 12.988281 C 17.078125 12.585938 16.835938 12.183594 16.578125 11.792969 C 15.46875 11.703125 14.375 11.703125 13.265625 11.792969 C 13.011719 12.183594 12.765625 12.585938 12.539062 12.988281 C 12.273438 13.457031 12.027344 13.9375 11.800781 14.421875 C 12.027344 14.90625 12.273438 15.386719 12.539062 15.855469 C 12.765625 16.257812 13.011719 16.660156 13.265625 17.054688 Z M 12.007812 17.601562 L 11.285156 17.46875 C 10.976562 17.410156 10.679688 17.347656 10.394531 17.277344 L 10.050781 17.195312 L 10.152344 16.855469 C 10.234375 16.566406 10.332031 16.273438 10.4375 15.96875 L 10.695312 15.246094 L 11.050781 15.925781 C 11.15625 16.125 11.261719 16.320312 11.367188 16.515625 C 11.429688 16.625 11.492188 16.730469 11.554688 16.835938 Z M 17.832031 17.601562 L 18.265625 16.878906 C 18.335938 16.757812 18.40625 16.636719 18.476562 16.515625 C 18.585938 16.324219 18.6875 16.132812 18.789062 15.9375 L 19.144531 15.257812 L 19.410156 15.96875 C 19.515625 16.273438 19.609375 16.566406 19.695312 16.855469 L 19.796875 17.195312 L 19.453125 17.277344 C 19.167969 17.347656 18.871094 17.410156 18.5625 17.46875 Z M 20.445312 17.007812 L 20.34375 16.667969 C 20.136719 15.976562 19.878906 15.265625 19.574219 14.554688 L 19.515625 14.421875 L 19.574219 14.292969 C 19.875 13.589844 20.132812 12.878906 20.34375 12.179688 L 20.445312 11.839844 L 20.777344 11.960938 C 22.613281 12.613281 23.664062 13.511719 23.664062 14.421875 C 23.664062 15.332031 22.613281 16.230469 20.777344 16.886719 Z M 20.246094 14.421875 C 20.488281 14.996094 20.699219 15.570312 20.878906 16.132812 C 22.433594 15.519531 22.992188 14.839844 22.992188 14.421875 C 22.992188 14.007812 22.433594 13.328125 20.878906 12.714844 C 20.699219 13.28125 20.488281 13.855469 20.246094 14.421875 Z M 9.402344 17.003906 L 9.070312 16.886719 C 7.234375 16.230469 6.183594 15.335938 6.183594 14.421875 C 6.183594 13.511719 7.234375 12.613281 9.070312 11.960938 L 9.402344 11.839844 L 9.503906 12.179688 C 9.710938 12.875 9.972656 13.585938 10.273438 14.289062 L 10.332031 14.421875 L 10.273438 14.554688 C 9.972656 15.261719 9.710938 15.96875 9.503906 16.667969 Z M 8.964844 12.714844 C 7.414062 13.328125 6.855469 14.007812 6.855469 14.421875 C 6.855469 14.839844 7.414062 15.519531 8.964844 16.132812 C 9.148438 15.566406 9.359375 14.992188 9.597656 14.421875 C 9.359375 13.851562 9.148438 13.28125 8.964844 12.714844 Z M 10.695312 13.601562 L 10.4375 12.875 C 10.332031 12.570312 10.234375 12.277344 10.152344 11.988281 L 10.050781 11.648438 L 10.394531 11.566406 C 10.679688 11.496094 10.976562 11.433594 11.285156 11.375 L 12.011719 11.242188 L 11.574219 11.980469 C 11.503906 12.097656 11.433594 12.210938 11.367188 12.332031 C 11.261719 12.523438 11.15625 12.71875 11.050781 12.917969 Z M 19.152344 13.597656 L 18.792969 12.917969 C 18.6875 12.714844 18.585938 12.519531 18.476562 12.332031 C 18.40625 12.207031 18.335938 12.085938 18.265625 11.964844 L 17.832031 11.242188 L 18.5625 11.375 C 18.871094 11.433594 19.167969 11.496094 19.453125 11.566406 L 19.796875 11.652344 L 19.695312 11.988281 C 19.609375 12.277344 19.515625 12.574219 19.410156 12.875 Z M 9.882812 10.980469 L 9.816406 10.636719 C 9.253906 7.738281 9.957031 6.867188 10.492188 6.550781 C 11.304688 6.074219 12.667969 6.582031 14.179688 7.90625 L 14.4375 8.132812 L 14.203125 8.386719 C 13.65625 8.976562 13.113281 9.648438 12.59375 10.390625 L 12.507812 10.511719 L 12.355469 10.53125 C 11.589844 10.621094 10.871094 10.742188 10.222656 10.898438 Z M 11.195312 7.042969 C 11.046875 7.042969 10.933594 7.070312 10.835938 7.128906 C 10.71875 7.195312 9.976562 7.488281 10.414062 10.167969 C 10.949219 10.050781 11.527344 9.957031 12.132812 9.882812 C 12.566406 9.269531 13.019531 8.703125 13.476562 8.191406 C 12.589844 7.464844 11.753906 7.042969 11.195312 7.042969 Z M 19.964844 10.980469 L 19.621094 10.898438 C 18.976562 10.742188 18.257812 10.621094 17.488281 10.53125 L 17.339844 10.511719 L 17.253906 10.390625 C 16.730469 9.648438 16.1875 8.972656 15.644531 8.386719 L 15.40625 8.132812 L 15.667969 7.90625 C 17.179688 6.582031 18.542969 6.074219 19.355469 6.550781 C 20.511719 7.234375 20.441406 8.507812 20.027344 10.636719 Z M 17.714844 9.882812 C 18.320312 9.957031 18.898438 10.050781 19.429688 10.167969 C 19.742188 8.269531 19.730469 7.554688 19.011719 7.128906 C 18.53125 6.84375 17.496094 7.269531 16.371094 8.191406 C 16.828125 8.703125 17.277344 9.269531 17.714844 9.882812 Z M 13.382812 10.421875 L 13.835938 9.855469 C 14.121094 9.492188 14.40625 9.164062 14.679688 8.871094 L 14.925781 8.605469 L 15.171875 8.871094 C 15.449219 9.171875 15.734375 9.503906 16.011719 9.855469 L 16.464844 10.421875 L 15.738281 10.398438 C 15.199219 10.378906 14.648438 10.378906 14.109375 10.398438 Z M 13.382812 10.421875 " fill-opacity="1" fill-rule="nonzero"/></g></svg>