<svg xmlns="http://www.w3.org/2000/svg" xmlns:xlink="http://www.w3.org/1999/xlink" width="40" zoomAndPan="magnify" viewBox="0 0 30 30.000001" height="40" preserveAspectRatio="xMidYMid meet" version="1.0"><defs><clipPath id="869afb4379"><path d="M 7 4.539062 L 22 4.539062 L 22 14 L 7 14 Z M 7 4.539062 " clip-rule="nonzero"/></clipPath><clipPath id="3ec2d10891"><path d="M 7 20 L 22 20 L 22 23.402344 L 7 23.402344 Z M 7 20 " clip-rule="nonzero"/></clipPath><clipPath id="220e29f6cb"><path d="M 6.09375 13 L 22.777344 13 L 22.777344 21 L 6.09375 21 Z M 6.09375 13 " clip-rule="nonzero"/></clipPath></defs><g clip-path="url(#869afb4379)"><path fill="#f2f2f2" d="M 21.5 4.953125 L 21.5 13.761719 L 7.371094 13.761719 L 7.371094 4.953125 C 7.371094 4.769531 7.519531 4.617188 7.703125 4.617188 L 21.167969 4.617188 C 21.347656 4.617188 21.5 4.769531 21.5 4.953125 Z M 21.5 4.953125 " fill-opacity="1" fill-rule="nonzero"/></g><path fill="#cd4527" d="M 19.671875 12.085938 C 19.671875 12.269531 19.519531 12.421875 19.339844 12.421875 L 9.53125 12.421875 C 9.347656 12.421875 9.199219 12.269531 9.199219 12.085938 C 9.199219 11.898438 9.347656 11.75 9.53125 11.75 L 19.339844 11.75 C 19.519531 11.75 19.671875 11.898438 19.671875 12.085938 Z M 19.671875 12.085938 " fill-opacity="1" fill-rule="nonzero"/><g clip-path="url(#3ec2d10891)"><path fill="#f2f2f2" d="M 21.5 20.890625 L 21.5 22.988281 C 21.5 23.175781 21.347656 23.324219 21.167969 23.324219 L 7.703125 23.324219 C 7.519531 23.324219 7.371094 23.175781 7.371094 22.988281 L 7.371094 20.890625 Z M 21.5 20.890625 " fill-opacity="1" fill-rule="nonzero"/></g><g clip-path="url(#220e29f6cb)"><path fill="#cd4527" d="M 22.785156 14.097656 L 22.785156 20.554688 C 22.785156 20.742188 22.640625 20.890625 22.453125 20.890625 L 6.417969 20.890625 C 6.230469 20.890625 6.085938 20.742188 6.085938 20.554688 L 6.085938 14.097656 C 6.085938 13.910156 6.230469 13.761719 6.417969 13.761719 L 22.453125 13.761719 C 22.640625 13.761719 22.785156 13.910156 22.785156 14.097656 Z M 22.785156 14.097656 " fill-opacity="1" fill-rule="nonzero"/></g><path fill="#cd4527" d="M 19.671875 7.386719 C 19.671875 7.574219 19.519531 7.722656 19.339844 7.722656 L 9.53125 7.722656 C 9.347656 7.722656 9.199219 7.574219 9.199219 7.386719 C 9.199219 7.199219 9.347656 7.054688 9.53125 7.054688 L 19.339844 7.054688 C 19.519531 7.054688 19.671875 7.199219 19.671875 7.386719 Z M 19.671875 7.386719 " fill-opacity="1" fill-rule="nonzero"/><path fill="#cd4527" d="M 19.671875 9.738281 C 19.671875 9.921875 19.519531 10.074219 19.339844 10.074219 L 9.53125 10.074219 C 9.347656 10.074219 9.199219 9.921875 9.199219 9.738281 C 9.199219 9.550781 9.347656 9.402344 9.53125 9.402344 L 19.339844 9.402344 C 19.519531 9.402344 19.671875 9.550781 19.671875 9.738281 Z M 19.671875 9.738281 " fill-opacity="1" fill-rule="nonzero"/><path fill="#ffffff" d="M 12.519531 18.039062 C 12.519531 18.261719 12.457031 18.46875 12.339844 18.664062 C 12.214844 18.855469 12.039062 19.003906 11.816406 19.097656 C 11.601562 19.1875 11.328125 19.234375 11.007812 19.234375 C 10.539062 19.234375 10.171875 19.121094 9.914062 18.898438 C 9.660156 18.675781 9.503906 18.347656 9.453125 17.925781 C 9.449219 17.902344 9.457031 17.878906 9.472656 17.863281 C 9.484375 17.847656 9.503906 17.832031 9.527344 17.832031 L 10.226562 17.761719 C 10.277344 17.757812 10.308594 17.789062 10.320312 17.832031 C 10.355469 18.046875 10.433594 18.207031 10.546875 18.304688 C 10.664062 18.402344 10.820312 18.453125 11.015625 18.453125 C 11.226562 18.453125 11.386719 18.410156 11.488281 18.324219 C 11.585938 18.242188 11.632812 18.148438 11.632812 18.039062 C 11.632812 17.972656 11.617188 17.917969 11.578125 17.875 C 11.539062 17.828125 11.464844 17.785156 11.355469 17.746094 C 11.273438 17.71875 11.085938 17.664062 10.785156 17.589844 C 10.382812 17.492188 10.105469 17.367188 9.9375 17.214844 C 9.703125 17 9.582031 16.734375 9.582031 16.429688 C 9.582031 16.230469 9.640625 16.039062 9.75 15.867188 C 9.863281 15.695312 10.023438 15.5625 10.230469 15.46875 C 10.4375 15.382812 10.683594 15.339844 10.96875 15.339844 C 11.433594 15.339844 11.792969 15.445312 12.03125 15.65625 C 12.277344 15.871094 12.40625 16.15625 12.417969 16.511719 C 12.421875 16.558594 12.382812 16.597656 12.339844 16.597656 L 11.621094 16.632812 C 11.578125 16.628906 11.539062 16.601562 11.53125 16.5625 C 11.507812 16.398438 11.449219 16.277344 11.363281 16.210938 C 11.277344 16.144531 11.140625 16.109375 10.957031 16.109375 C 10.769531 16.109375 10.617188 16.148438 10.515625 16.222656 C 10.460938 16.261719 10.4375 16.3125 10.4375 16.378906 C 10.4375 16.441406 10.460938 16.488281 10.511719 16.535156 C 10.570312 16.582031 10.722656 16.65625 11.140625 16.757812 C 11.496094 16.84375 11.765625 16.933594 11.9375 17.023438 C 12.121094 17.121094 12.265625 17.253906 12.367188 17.417969 C 12.46875 17.589844 12.519531 17.796875 12.519531 18.039062 Z M 12.519531 18.039062 " fill-opacity="1" fill-rule="nonzero"/><path fill="#ffffff" d="M 16.523438 18.855469 C 16.351562 18.796875 16.1875 18.710938 16.039062 18.613281 C 16.15625 18.460938 16.246094 18.300781 16.308594 18.136719 C 16.398438 17.894531 16.441406 17.605469 16.441406 17.285156 C 16.441406 16.679688 16.277344 16.199219 15.949219 15.855469 C 15.628906 15.515625 15.183594 15.339844 14.632812 15.339844 C 14.078125 15.339844 13.628906 15.515625 13.304688 15.855469 C 12.980469 16.195312 12.8125 16.679688 12.8125 17.285156 C 12.8125 17.898438 12.980469 18.375 13.304688 18.71875 C 13.628906 19.0625 14.082031 19.230469 14.65625 19.230469 C 14.929688 19.230469 15.191406 19.183594 15.417969 19.085938 C 15.835938 19.371094 15.863281 19.382812 15.871094 19.386719 C 15.976562 19.445312 16.089844 19.492188 16.203125 19.53125 C 16.214844 19.53125 16.21875 19.535156 16.226562 19.535156 C 16.261719 19.535156 16.285156 19.515625 16.304688 19.488281 L 16.570312 18.972656 C 16.578125 18.953125 16.578125 18.925781 16.574219 18.90625 C 16.5625 18.882812 16.546875 18.863281 16.523438 18.855469 Z M 15.464844 17.800781 C 15.433594 17.914062 15.382812 18.015625 15.324219 18.105469 C 15.121094 17.960938 14.90625 17.847656 14.683594 17.773438 C 14.648438 17.757812 14.601562 17.777344 14.585938 17.816406 L 14.382812 18.230469 C 14.371094 18.25 14.367188 18.277344 14.378906 18.300781 C 14.390625 18.320312 14.40625 18.339844 14.429688 18.347656 C 14.511719 18.375 14.59375 18.414062 14.679688 18.457031 C 14.65625 18.460938 14.632812 18.460938 14.609375 18.460938 C 14.347656 18.460938 14.144531 18.367188 13.976562 18.175781 C 13.808594 17.984375 13.722656 17.683594 13.722656 17.285156 C 13.722656 16.894531 13.808594 16.601562 13.976562 16.410156 C 14.144531 16.222656 14.359375 16.128906 14.628906 16.128906 C 14.902344 16.128906 15.113281 16.222656 15.28125 16.410156 C 15.445312 16.597656 15.53125 16.894531 15.53125 17.285156 C 15.53125 17.476562 15.507812 17.652344 15.464844 17.800781 Z M 15.464844 17.800781 " fill-opacity="1" fill-rule="nonzero"/><path fill="#ffffff" d="M 19.539062 18.480469 L 19.539062 19.085938 C 19.539062 19.132812 19.5 19.171875 19.453125 19.171875 L 16.941406 19.171875 C 16.894531 19.171875 16.859375 19.132812 16.859375 19.085938 L 16.859375 15.515625 C 16.859375 15.46875 16.894531 15.429688 16.941406 15.429688 L 17.664062 15.429688 C 17.710938 15.429688 17.746094 15.46875 17.746094 15.515625 L 17.746094 18.398438 L 19.453125 18.398438 C 19.5 18.398438 19.539062 18.433594 19.539062 18.480469 Z M 19.539062 18.480469 " fill-opacity="1" fill-rule="nonzero"/></svg>